<svg width="191" height="44" viewBox="0 0 191 44" fill="none" xmlns="http://www.w3.org/2000/svg">
<path d="M64.2164 33.213C68.6108 33.213 72.3824 30.8792 73.6712 26.6663C73.793 26.2663 73.4871 25.8582 73.0728 25.8582H69.8481C69.6017 25.8582 69.3716 26.0061 69.2768 26.2362C68.4104 28.3673 66.7913 29.452 64.2137 29.452C60.5531 29.452 58.7255 26.8333 58.4981 23.7326C58.471 23.3682 58.7607 23.0587 59.1208 23.0587H73.6035C73.9338 23.0587 74.2018 22.7985 74.2262 22.467C74.6973 16.2134 70.6171 10.4391 64.0892 10.4391C57.5613 10.4391 53.7626 15.7039 53.7626 21.848C53.7626 28.4933 57.5207 33.2157 64.2137 33.2157L64.2164 33.213ZM58.5414 19.1937C58.9502 16.3339 61.0811 14.2001 64.0919 14.2001C67.1027 14.2001 68.9654 16.4983 69.3878 19.2101C69.4474 19.5881 69.1469 19.925 68.7705 19.925H59.1587C58.7742 19.925 58.4872 19.5772 58.5441 19.1937H58.5414Z" fill="white"/>
<path d="M78.3877 32.6268H81.8507C82.1945 32.6268 82.4734 32.3446 82.4734 31.9968V19.6046C82.4734 16.6736 84.7802 14.1809 87.68 14.1973C90.4173 14.211 91.7278 15.6765 91.809 19.0458V31.9968C91.809 32.3446 92.0879 32.6268 92.4318 32.6268H95.8947C96.2386 32.6268 96.5174 32.3446 96.5174 31.9968V17.7912C96.5174 12.9428 93.5852 10.4364 88.958 10.4364C86.1502 10.4364 83.7135 11.8991 82.3082 14.2823L82.227 14.2001V11.6554C82.227 11.3075 81.9481 11.0253 81.6043 11.0253H78.3877C78.0439 11.0253 77.765 11.3075 77.765 11.6554V31.9968C77.765 32.3446 78.0439 32.6268 78.3877 32.6268Z" fill="white"/>
<path d="M105.685 2.79126H102.222C101.878 2.79126 101.6 3.07333 101.6 3.42128V6.67547C101.6 7.02342 101.878 7.30548 102.222 7.30548H105.685C106.029 7.30548 106.308 7.02342 106.308 6.67547V3.42128C106.308 3.07333 106.029 2.79126 105.685 2.79126Z" fill="white"/>
<path d="M105.685 11.0226H102.222C101.878 11.0226 101.6 11.3047 101.6 11.6526V31.9968C101.6 32.3447 101.878 32.6268 102.222 32.6268H105.685C106.029 32.6268 106.308 32.3447 106.308 31.9968V11.6526C106.308 11.3047 106.029 11.0226 105.685 11.0226Z" fill="white"/>
<path d="M119.981 32.6268C122.624 32.6268 125.06 31.2051 126.384 28.8248H126.468V32.1255C126.468 35.6783 124.773 37.6423 120.975 37.6423C118.717 37.6423 116.681 37.2341 115.968 34.9168C115.887 34.6511 115.649 34.4675 115.373 34.4675H111.853C111.471 34.4675 111.171 34.8127 111.238 35.1934C112.034 39.6857 116.605 41.195 120.685 41.195C127.419 41.195 131.177 37.9765 131.177 31.501V11.6526C131.177 11.3047 130.898 11.0226 130.554 11.0226H127.091C126.747 11.0226 126.468 11.3047 126.468 11.6526V13.9892H126.384C125.188 11.565 122.748 10.4364 120.065 10.4364C113.992 10.4364 110.399 15.4519 110.399 21.259C110.399 27.4442 113.207 32.6268 119.981 32.6268ZM120.726 14.1973C124.814 14.1973 126.468 17.6241 126.468 21.344C126.468 25.0638 124.898 28.8658 120.726 28.8658C116.802 28.8658 115.107 25.272 115.107 21.7192C115.107 18.1665 116.553 14.1973 120.726 14.1973Z" fill="white"/>
<path d="M162.194 20.0072V31.9968C162.194 32.3446 162.473 32.6268 162.817 32.6268H166.28C166.624 32.6268 166.903 32.3446 166.903 31.9968V17.709C166.903 12.4443 164.26 10.4364 159.758 10.4364C157.031 10.4364 155.136 11.5047 153.652 13.2715C153.376 13.6002 152.87 13.5399 152.645 13.1729C151.508 11.3047 149.355 10.4391 147.078 10.4391C143.691 10.4391 141.915 11.9019 140.51 14.033H140.385V11.6554C140.385 11.3075 140.106 11.0253 139.762 11.0253H136.546C136.202 11.0253 135.923 11.3075 135.923 11.6554V31.9968C135.923 32.3446 136.202 32.6268 136.546 32.6268H140.009C140.353 32.6268 140.632 32.3446 140.632 31.9968V19.7963C140.632 16.2025 142.863 14.1973 145.299 14.1973C148.15 14.1973 149.057 15.7861 149.057 18.7527V31.9968C149.057 32.3446 149.336 32.6268 149.68 32.6268H153.143C153.487 32.6268 153.766 32.3446 153.766 31.9968V19.9661C153.766 16.3312 155.13 14.2001 158.309 14.2001C161.986 14.2001 162.192 16.5832 162.192 20.01L162.194 20.0072Z" fill="white"/>
<path d="M170.146 32.8103C170.915 33.0185 172.023 33.213 172.662 33.213C174.262 33.213 175.483 32.7391 176.049 31.4133C176.206 31.049 176.666 30.9339 176.98 31.1723C178.84 32.5912 181.459 33.213 183.69 33.213C187.532 33.213 191 31.123 191 26.9018C191 21.511 186.746 20.6345 182.78 20.1743C179.393 19.547 176.377 19.925 176.377 17.1228C176.377 14.6575 178.897 14.1973 180.798 14.1973C183.24 14.1973 185.011 15.1232 185.431 17.1119C185.493 17.4077 185.742 17.6241 186.042 17.6241H189.53C189.903 17.6241 190.199 17.2899 190.15 16.9146C189.478 11.9265 185.014 10.4364 180.511 10.4364C176.339 10.4364 171.961 12.1484 171.961 16.7037V27.8195C171.961 28.9891 171.714 29.4493 170.845 29.4493C170.702 29.4493 170.536 29.4493 170.344 29.4383C169.987 29.4192 169.689 29.7123 169.689 30.0766V32.1995C169.689 32.4843 169.876 32.7336 170.146 32.8076V32.8103ZM176.669 22.8177C176.669 22.3821 177.097 22.0698 177.5 22.226C178.905 22.7656 180.749 22.7903 182.452 23.0998C184.478 23.434 186.294 24.1873 186.294 26.6936C186.294 28.8248 183.608 29.452 181.957 29.452C179.891 29.452 176.669 28.3646 176.669 25.3569V22.8177Z" fill="white"/>
<path d="M21.735 19.558C20.3948 19.558 19.3063 20.6592 19.3063 22.0151C19.3063 23.371 20.3948 24.4721 21.735 24.4721C22.3659 24.4721 22.9561 24.2311 23.411 23.7928H29.2484C29.2728 23.7928 29.2972 23.7928 29.3215 23.7873H29.327C29.3567 23.7873 29.3892 23.7928 29.419 23.7928C29.4299 23.7928 29.4407 23.7928 29.4515 23.7928C29.4623 23.7928 29.4705 23.7928 29.4813 23.7928C30.4506 23.7928 31.2385 22.9957 31.2385 22.0151C31.2385 16.7476 27.0039 12.4634 21.7973 12.4634C21.7864 12.4634 21.7756 12.4634 21.7675 12.4634C21.7567 12.4634 21.7458 12.4634 21.735 12.4634C16.5284 12.4634 12.2938 16.7476 12.2938 22.0151V22.0288C12.3019 27.2881 16.5365 31.5667 21.735 31.5667H21.7485C24.8893 31.5612 27.8134 29.9834 29.5706 27.3456C29.8333 26.9511 29.928 26.48 29.8387 26.0143C29.7493 25.5487 29.484 25.146 29.0968 24.8803C28.8071 24.6831 28.466 24.5762 28.1167 24.5762C27.5319 24.5762 26.9849 24.8693 26.66 25.3596C25.5554 27.0169 23.7196 28.0112 21.7458 28.0139C18.4724 28.0139 15.8136 25.3268 15.8082 22.026V22.0151C15.8136 18.7061 18.4697 16.0189 21.7377 16.0189C21.7485 16.0189 21.7594 16.0189 21.7702 16.0189C21.781 16.0189 21.7892 16.0189 21.8 16.0189C23.0427 16.0189 24.2341 16.4052 25.244 17.1393C25.3117 17.216 25.3794 17.2817 25.4525 17.342C26.3839 18.1007 27.0526 19.0978 27.3992 20.2401H23.4137C22.9588 19.8018 22.3686 19.5607 21.7377 19.5607L21.735 19.558Z" fill="white"/>
<path d="M33.0661 40.7513C33.1229 40.7157 33.1798 40.6828 33.2367 40.6472L33.3098 40.6006L33.3287 40.5869C36.6969 38.4449 39.4126 35.4153 41.1833 31.8242L41.2158 31.7612L41.232 31.7283C41.2781 31.6352 41.3214 31.5448 41.3647 31.4517C41.3999 31.375 41.4378 31.2955 41.473 31.2188L41.5082 31.1394L41.519 31.1147C42.5614 28.8056 43.1977 26.343 43.4035 23.7983C43.4956 22.678 43.4983 21.5357 43.417 20.4017V20.3852C43.4062 20.2401 43.3954 20.1113 43.3818 19.9798C43.3764 19.9278 43.371 19.873 43.3656 19.8182L43.3602 19.7689L43.3548 19.7169C43.3493 19.6621 43.3439 19.61 43.3385 19.5553C43.325 19.4265 43.3087 19.2978 43.2925 19.169V19.1526L43.2871 19.1307C43.1219 17.8515 42.8457 16.5859 42.464 15.367C42.4586 15.3451 42.4504 15.3259 42.4423 15.3067L42.4342 15.2848C41.8033 13.2824 40.8909 11.3842 39.7321 9.65299C39.4045 9.16541 38.8602 8.87505 38.2781 8.87505C37.9261 8.87505 37.585 8.98188 37.2926 9.18185C36.4911 9.73243 36.2826 10.8391 36.8242 11.6499C37.788 13.0852 38.5434 14.6356 39.0687 16.2545C39.0823 16.3202 39.0985 16.3832 39.1147 16.438C39.4613 17.5447 39.705 18.6814 39.8404 19.8182L39.8458 19.873L39.8539 19.9524V19.9716L39.8566 19.9908C39.9785 21.144 39.992 22.3273 39.8945 23.5052C39.7862 24.8365 39.5344 26.1568 39.1445 27.4305C39.0119 27.8605 38.8657 28.2824 38.7086 28.6878C38.603 28.9645 38.4866 29.2439 38.362 29.526L38.3512 29.5506L38.3323 29.5917C38.2889 29.6903 38.2429 29.789 38.1969 29.8876L38.1806 29.9232C38.159 29.9697 38.1373 30.0163 38.1157 30.0629C38.0967 30.104 38.075 30.1451 38.0561 30.1834L38.0371 30.2245C37.9884 30.3258 37.937 30.4272 37.8855 30.5258C36.3585 33.4705 34.0733 35.944 31.2683 37.6916C30.5643 38.1271 29.8252 38.5188 29.0697 38.8558L28.1979 36.689C30.9136 35.4646 33.2285 33.5006 34.8964 30.9997C35.4379 30.1889 35.2267 29.0822 34.4253 28.5344C34.1329 28.3344 33.7944 28.2303 33.4424 28.2303C32.8576 28.2303 32.3134 28.5234 31.9858 29.0138C29.6789 32.4706 25.8424 34.5333 21.7242 34.5333C20.3163 34.5333 18.9327 34.295 17.6195 33.8293C17.43 33.7636 17.2351 33.7279 17.0374 33.7279C16.2928 33.7279 15.6268 34.2046 15.3804 34.9168C15.2261 35.3633 15.2504 35.8454 15.4535 36.2754C15.6566 36.7027 16.0112 37.026 16.4553 37.1821C18.1448 37.782 19.9182 38.0888 21.7242 38.0888C22.7666 38.0888 23.8117 37.9847 24.8379 37.7765L25.7232 39.9761C24.5779 40.2391 23.411 40.3897 22.2467 40.4253L22.2386 40.5294C22.2386 40.5294 22.2305 40.5294 22.2251 40.5294V40.4281C22.1141 40.4308 22.0058 40.4335 21.9002 40.4335H21.7242C21.6646 40.4335 21.6159 40.4335 21.5671 40.4335H21.5292C21.4209 40.4335 21.3099 40.4308 21.1989 40.4281H21.1339C20.8307 40.4171 20.5274 40.4007 20.235 40.376C18.9381 40.2692 17.6493 40.0172 16.4038 39.6337C16.347 39.6173 16.2928 39.5981 16.236 39.5789L16.1764 39.5597L16.1195 39.5406C16.0681 39.5241 16.0167 39.5077 15.9652 39.4913C15.865 39.4584 15.7622 39.42 15.662 39.3844L15.6105 39.3653L15.5266 39.3351C15.4183 39.294 15.31 39.2529 15.2017 39.2119L15.1557 39.1954L15.0853 39.168C14.9688 39.1215 14.8551 39.0749 14.7414 39.0283L14.6981 39.0092L14.6385 38.9845C14.5221 38.9352 14.4084 38.8831 14.292 38.8311L14.2513 38.8147L14.1972 38.79C14.0781 38.7352 13.9589 38.6777 13.8398 38.6202L13.8073 38.6037L13.7667 38.5846C13.6421 38.5216 13.5149 38.4586 13.393 38.3956L13.3714 38.3846L13.347 38.3709C13.2144 38.3024 13.0817 38.2312 12.9517 38.1573L12.8922 38.2422C12.8922 38.2422 12.8867 38.2394 12.8813 38.2367L12.9301 38.1463C9.1422 36.0316 6.21264 32.6131 4.68287 28.5234C4.42565 27.8359 3.76501 27.3757 3.03939 27.3757C2.8282 27.3757 2.61701 27.4141 2.41665 27.4908C1.51233 27.8386 1.05476 28.8658 1.39591 29.7807C2.0728 31.5914 2.99066 33.3088 4.11699 34.8839L4.12512 34.8949C4.13595 34.914 4.14678 34.9305 4.16032 34.9469C6.13953 37.6916 8.75773 39.9651 11.7387 41.5265L11.755 41.5347C11.9229 41.6224 12.0826 41.7045 12.2423 41.7812L12.2748 41.7977L12.2992 41.8086C12.4508 41.8826 12.6024 41.9565 12.7568 42.025L12.8028 42.0469L12.8353 42.0606C12.9815 42.1264 13.1304 42.1921 13.2793 42.2579L13.3741 42.2989C13.5203 42.3592 13.6665 42.4195 13.8127 42.4797L13.8371 42.4907L13.8939 42.5126L13.9373 42.529C14.0645 42.5783 14.1918 42.6277 14.319 42.6742L14.3624 42.6907L14.3948 42.7016C14.5898 42.7728 14.7929 42.8413 15.004 42.9125L15.0501 42.929C15.1394 42.9591 15.2315 42.9892 15.3235 43.0166L15.4183 43.0468L15.4779 43.0659C15.6105 43.107 15.7432 43.1454 15.8759 43.1837L15.9463 43.2029L15.9896 43.2138C16.1412 43.2549 16.2928 43.296 16.4445 43.3344L16.4905 43.3453L16.5121 43.3508C18.0798 43.7453 19.6908 43.9589 21.3018 43.9918H21.337C21.4615 43.9918 21.5861 43.9973 21.7106 43.9973H21.7242L21.7296 43.8411L21.735 43.8658L21.7404 44C21.7404 44 21.7485 44 21.754 44C21.7892 44 21.8162 44 21.8433 44H21.9435C22.0139 44 22.0843 44 22.1547 44C24.272 43.9617 26.3676 43.6083 28.3793 42.9509C28.5201 42.929 28.6528 42.8934 28.7746 42.8413C28.8342 42.8167 28.8911 42.7893 28.956 42.7509C30.3802 42.2414 31.7556 41.5785 33.0498 40.7787L33.0661 40.7705V40.7513Z" fill="white"/>
<path d="M1.86973 25.9458C1.932 25.9458 1.99699 25.9431 2.05926 25.9349C3.02044 25.8308 3.72169 24.9542 3.61881 23.9791C3.49697 22.8259 3.48343 21.648 3.57819 20.4784C3.9762 15.5697 6.24242 11.113 9.95447 7.92729C12.8191 5.47021 16.282 3.9883 19.9805 3.63494V6.04271C15.9733 6.49194 12.3236 8.43952 9.68913 11.5403C7.21443 14.4521 5.85253 18.1692 5.85253 22.0123C5.85253 26.8498 7.97796 31.3859 11.6819 34.4538C11.996 34.7141 12.3886 34.8565 12.792 34.8565C13.3199 34.8565 13.8181 34.6182 14.1512 34.2046C14.7631 33.4458 14.6548 32.3255 13.9048 31.7037C11.0185 29.3123 9.36422 25.7815 9.36422 22.0123C9.36422 19.0184 10.4256 16.123 12.3506 13.8549C14.7062 11.0829 18.1258 9.49412 21.735 9.49412C23.6574 9.49412 25.577 9.95157 27.2855 10.8144C27.3234 10.8391 27.364 10.8637 27.4046 10.8856C31.0679 12.8003 33.5426 16.4134 34.0219 20.5496C34.187 21.9658 34.1139 23.3792 33.8107 24.757C33.7078 25.2199 33.789 25.6966 34.0408 26.0965C34.2926 26.4964 34.6825 26.7758 35.1401 26.8799C35.2673 26.91 35.3973 26.9237 35.5272 26.9237C36.3395 26.9237 37.0597 26.3403 37.2384 25.535C37.631 23.7654 37.7231 21.9493 37.5119 20.1332C37.4415 19.5196 37.3305 18.8978 37.187 18.2843V18.2706C37.1816 18.2459 37.1761 18.224 37.1707 18.1993C37.1003 17.9008 37.0137 17.5912 36.9 17.2269C35.0236 11.1103 29.7737 6.73573 23.4895 6.03997V3.64042C27.3098 4.01295 30.8486 5.55513 33.7321 8.11081C34.0516 8.39569 34.4632 8.55183 34.8883 8.55183C35.3946 8.55183 35.8765 8.32995 36.2095 7.94646C36.8485 7.20961 36.7727 6.0838 36.0444 5.44008C32.5273 2.32011 28.1952 0.465666 23.522 0.076698C22.9182 0.0246529 22.3063 0 21.7025 0C16.5852 0 11.6061 1.85445 7.68013 5.22094C3.25329 9.02023 0.551155 14.3343 0.0746268 20.188C-0.0390902 21.5768 -0.0228449 22.982 0.123363 24.3571C0.218127 25.261 0.968117 25.9431 1.86702 25.9431L1.86973 25.9458Z" fill="white"/>
</svg>
