<svg width="213" height="49" viewBox="0 0 213 49" fill="none" xmlns="http://www.w3.org/2000/svg">
<path d="M71.6131 36.9872C76.5136 36.9872 80.7196 34.3882 82.1568 29.6965C82.2927 29.2511 81.9515 28.7966 81.4896 28.7966H77.8934C77.6187 28.7966 77.362 28.9613 77.2563 29.2176C76.2901 31.5909 74.4845 32.7989 71.6101 32.7989C67.5278 32.7989 65.4897 29.8826 65.2361 26.4294C65.2059 26.0237 65.529 25.679 65.9305 25.679H82.0814C82.4497 25.679 82.7487 25.3892 82.7758 25.0201C83.3012 18.0558 78.751 11.6254 71.4712 11.6254C64.1914 11.6254 59.9551 17.4885 59.9551 24.3307C59.9551 31.7312 64.1461 36.9902 71.6101 36.9902L71.6131 36.9872ZM65.2844 21.3748C65.7403 18.1901 68.1166 15.8137 71.4742 15.8137C74.8318 15.8137 76.9091 18.3731 77.3801 21.3931C77.4466 21.814 77.1114 22.1893 76.6917 22.1893H65.9728C65.5441 22.1893 65.224 21.8018 65.2874 21.3748H65.2844Z" fill="black"/>
<path d="M87.4167 36.3344H91.2785C91.662 36.3344 91.973 36.0202 91.973 35.6328V21.8323C91.973 18.5683 94.5455 15.7924 97.7793 15.8107C100.832 15.8259 102.293 17.4579 102.384 21.21V35.6328C102.384 36.0202 102.695 36.3344 103.078 36.3344H106.94C107.324 36.3344 107.635 36.0202 107.635 35.6328V19.8129C107.635 14.4136 104.365 11.6224 99.2044 11.6224C96.0733 11.6224 93.3558 13.2513 91.7888 15.9052L91.6982 15.8137V12.9798C91.6982 12.5924 91.3872 12.2782 91.0037 12.2782H87.4167C87.0332 12.2782 86.7222 12.5924 86.7222 12.9798V35.6328C86.7222 36.0202 87.0332 36.3344 87.4167 36.3344Z" fill="black"/>
<path d="M117.858 3.10845H113.997C113.613 3.10845 113.302 3.42257 113.302 3.81006V7.43404C113.302 7.82153 113.613 8.13565 113.997 8.13565H117.858C118.242 8.13565 118.553 7.82153 118.553 7.43404V3.81006C118.553 3.42257 118.242 3.10845 117.858 3.10845Z" fill="black"/>
<path d="M117.858 12.2752H113.997C113.613 12.2752 113.302 12.5893 113.302 12.9768V35.6328C113.302 36.0202 113.613 36.3344 113.997 36.3344H117.858C118.242 36.3344 118.553 36.0202 118.553 35.6328V12.9768C118.553 12.5893 118.242 12.2752 117.858 12.2752Z" fill="black"/>
<path d="M133.801 36.3344C136.748 36.3344 139.465 34.7512 140.942 32.1003H141.035V35.7761C141.035 39.7326 139.145 41.9198 134.909 41.9198C132.391 41.9198 130.12 41.4653 129.326 38.8846C129.236 38.5887 128.97 38.3843 128.662 38.3843H124.737C124.311 38.3843 123.976 38.7687 124.051 39.1927C124.939 44.1955 130.036 45.8763 134.586 45.8763C142.095 45.8763 146.286 42.292 146.286 35.0806V12.9768C146.286 12.5894 145.975 12.2752 145.592 12.2752H141.73C141.346 12.2752 141.035 12.5894 141.035 12.9768V15.5788H140.942C139.607 12.8792 136.887 11.6224 133.894 11.6224C127.122 11.6224 123.115 17.2078 123.115 23.6748C123.115 30.5628 126.246 36.3344 133.801 36.3344ZM134.631 15.8107C139.191 15.8107 141.035 19.6268 141.035 23.7694C141.035 27.912 139.284 32.146 134.631 32.146C130.256 32.146 128.366 28.1438 128.366 24.1873C128.366 20.2308 129.978 15.8107 134.631 15.8107Z" fill="black"/>
<path d="M180.876 22.2808V35.6328C180.876 36.0202 181.187 36.3344 181.571 36.3344H185.433C185.816 36.3344 186.127 36.0202 186.127 35.6328V19.7214C186.127 13.8584 183.18 11.6224 178.159 11.6224C175.118 11.6224 173.005 12.8121 171.35 14.7796C171.042 15.1457 170.478 15.0786 170.227 14.6698C168.959 12.5894 166.558 11.6254 164.019 11.6254C160.242 11.6254 158.261 13.2544 156.694 15.6277H156.555V12.9798C156.555 12.5924 156.244 12.2782 155.861 12.2782H152.274C151.89 12.2782 151.579 12.5924 151.579 12.9798V35.6328C151.579 36.0202 151.89 36.3344 152.274 36.3344H156.135C156.519 36.3344 156.83 36.0202 156.83 35.6328V22.0459C156.83 18.0436 159.318 15.8107 162.035 15.8107C165.215 15.8107 166.226 17.58 166.226 20.8836V35.6328C166.226 36.0202 166.537 36.3344 166.921 36.3344H170.783C171.166 36.3344 171.477 36.0202 171.477 35.6328V22.235C171.477 18.187 172.999 15.8137 176.544 15.8137C180.644 15.8137 180.873 18.4677 180.873 22.2838L180.876 22.2808Z" fill="black"/>
<path d="M189.744 36.5388C190.602 36.7706 191.837 36.9872 192.55 36.9872C194.334 36.9872 195.696 36.4594 196.327 34.983C196.502 34.5773 197.015 34.4492 197.366 34.7146C199.44 36.2947 202.36 36.9872 204.848 36.9872C209.132 36.9872 213 34.6597 213 29.9588C213 23.9555 208.257 22.9793 203.833 22.4668C200.056 21.7683 196.692 22.1893 196.692 19.0686C196.692 16.3232 199.503 15.8107 201.623 15.8107C204.346 15.8107 206.321 16.8417 206.789 19.0564C206.859 19.3859 207.136 19.6268 207.471 19.6268H211.36C211.777 19.6268 212.106 19.2547 212.052 18.8368C211.303 13.2818 206.324 11.6224 201.303 11.6224C196.65 11.6224 191.768 13.5289 191.768 18.6019V30.9808C191.768 32.2833 191.493 32.7958 190.524 32.7958C190.363 32.7958 190.179 32.7958 189.965 32.7836C189.566 32.7622 189.234 33.0887 189.234 33.4944V35.8585C189.234 36.1757 189.443 36.4533 189.744 36.5357V36.5388ZM197.018 25.4106C197.018 24.9255 197.495 24.5778 197.945 24.7517C199.512 25.3526 201.569 25.3801 203.468 25.7248C205.726 26.0969 207.752 26.9358 207.752 29.727C207.752 32.1003 204.757 32.7989 202.915 32.7989C200.611 32.7989 197.018 31.5878 197.018 28.2384V25.4106Z" fill="black"/>
<path d="M24.2385 21.7805C22.7439 21.7805 21.5301 23.0068 21.5301 24.5168C21.5301 26.0268 22.7439 27.2531 24.2385 27.2531C24.942 27.2531 25.6003 26.9846 26.1075 26.4965H32.6174C32.6445 26.4965 32.6717 26.4965 32.6989 26.4904H32.7049C32.7382 26.4904 32.7744 26.4965 32.8076 26.4965C32.8197 26.4965 32.8318 26.4965 32.8438 26.4965C32.8559 26.4965 32.865 26.4965 32.877 26.4965C33.958 26.4965 34.8366 25.6089 34.8366 24.5168C34.8366 18.6507 30.1143 13.8797 24.308 13.8797C24.2959 13.8797 24.2838 13.8797 24.2747 13.8797C24.2627 13.8797 24.2506 13.8797 24.2385 13.8797C18.4322 13.8797 13.7098 18.6507 13.7098 24.5168V24.532C13.7189 30.389 18.4412 35.1538 24.2385 35.1538H24.2536C27.7561 35.1477 31.0171 33.3906 32.9767 30.453C33.2696 30.0138 33.3752 29.4891 33.2756 28.9705C33.176 28.4519 32.8801 28.0035 32.4483 27.7076C32.1252 27.488 31.7448 27.369 31.3553 27.369C30.7031 27.369 30.0931 27.6954 29.7308 28.2414C28.4989 30.087 26.4517 31.1943 24.2506 31.1973C20.6001 31.1973 17.6351 28.2048 17.629 24.529V24.5168C17.6351 20.8318 20.5971 17.8393 24.2415 17.8393C24.2536 17.8393 24.2657 17.8393 24.2778 17.8393C24.2898 17.8393 24.2989 17.8393 24.311 17.8393C25.6969 17.8393 27.0254 18.2694 28.1517 19.0869C28.2272 19.1723 28.3026 19.2455 28.3842 19.3126C29.4228 20.1576 30.1686 21.268 30.5551 22.5401H26.1105C25.6033 22.052 24.9451 21.7835 24.2415 21.7835L24.2385 21.7805Z" fill="black"/>
<path d="M36.8747 45.3821C36.9382 45.3425 37.0016 45.3059 37.065 45.2662L37.1465 45.2143L37.1676 45.1991C40.9238 42.8136 43.9522 39.4398 45.9269 35.4406L45.9632 35.3704L45.9813 35.3338C46.0326 35.2301 46.0809 35.1294 46.1292 35.0257C46.1685 34.9403 46.2108 34.8518 46.25 34.7664L46.2893 34.678L46.3013 34.6505C47.4638 32.0789 48.1734 29.3365 48.4029 26.5026C48.5055 25.255 48.5085 23.9829 48.418 22.72V22.7017C48.4059 22.5401 48.3938 22.3967 48.3787 22.2503C48.3727 22.1923 48.3666 22.1313 48.3606 22.0703L48.3545 22.0154L48.3485 21.9574C48.3425 21.8964 48.3364 21.8384 48.3304 21.7774C48.3153 21.6341 48.2972 21.4907 48.2791 21.3473V21.329L48.273 21.3046C48.0888 19.88 47.7809 18.4707 47.3551 17.1132C47.3491 17.0888 47.34 17.0675 47.331 17.0461L47.3219 17.0217C46.6184 14.7918 45.6008 12.6778 44.3085 10.7499C43.9432 10.2069 43.3363 9.88358 42.6871 9.88358C42.2946 9.88358 41.9141 10.0026 41.588 10.2252C40.6943 10.8384 40.4618 12.0708 41.0657 12.9737C42.1406 14.5722 42.983 16.2988 43.5688 18.1016C43.5839 18.1748 43.602 18.245 43.6201 18.306C44.0066 19.5384 44.2783 20.8043 44.4293 22.0703L44.4353 22.1313L44.4444 22.2198V22.2411L44.4474 22.2625C44.5833 23.5467 44.5984 24.8645 44.4897 26.1762C44.3689 27.6588 44.0881 29.1291 43.6533 30.5476C43.5054 31.0265 43.3423 31.4963 43.1672 31.9478C43.0494 32.2559 42.9196 32.567 42.7807 32.8812L42.7686 32.9087L42.7475 32.9544C42.6992 33.0642 42.6479 33.1741 42.5965 33.2839L42.5784 33.3235C42.5543 33.3754 42.5301 33.4273 42.5059 33.4791C42.4848 33.5249 42.4607 33.5706 42.4395 33.6133L42.4184 33.6591C42.364 33.772 42.3067 33.8848 42.2493 33.9946C40.5463 37.2739 37.998 40.0285 34.8699 41.9747C34.0848 42.4598 33.2605 42.896 32.4181 43.2712L31.4458 40.8582C34.4743 39.4947 37.0559 37.3075 38.9159 34.5224C39.5198 33.6194 39.2842 32.387 38.3905 31.7769C38.0644 31.5543 37.687 31.4383 37.2944 31.4383C36.6423 31.4383 36.0353 31.7647 35.67 32.3108C33.0975 36.1605 28.819 38.4575 24.2264 38.4575C22.6563 38.4575 21.1134 38.1921 19.649 37.6735C19.4376 37.6003 19.2202 37.5607 18.9998 37.5607C18.1695 37.5607 17.4267 38.0915 17.152 38.8846C16.9798 39.3818 17.007 39.9187 17.2335 40.3976C17.4599 40.8735 17.8555 41.2335 18.3507 41.4073C20.2348 42.0754 22.2125 42.417 24.2264 42.417C25.3889 42.417 26.5544 42.3011 27.6988 42.0693L28.6861 44.5188C27.4089 44.8117 26.1075 44.9795 24.8092 45.0191L24.8001 45.135C24.8001 45.135 24.7911 45.135 24.785 45.135V45.0222C24.6612 45.0252 24.5405 45.0283 24.4227 45.0283H24.2264C24.16 45.0283 24.1057 45.0283 24.0513 45.0283H24.009C23.8883 45.0283 23.7645 45.0252 23.6407 45.0222H23.5682C23.23 45.01 22.8919 44.9917 22.5658 44.9642C21.1195 44.8452 19.6822 44.5646 18.2933 44.1375C18.2299 44.1192 18.1695 44.0979 18.1061 44.0765L18.0397 44.0552L17.9763 44.0338C17.9189 44.0155 17.8615 43.9972 17.8041 43.9789C17.6924 43.9423 17.5777 43.8996 17.466 43.8599L17.4086 43.8386L17.315 43.805C17.1942 43.7593 17.0734 43.7135 16.9527 43.6677L16.9013 43.6494L16.8228 43.6189C16.693 43.5671 16.5662 43.5152 16.4394 43.4634L16.3911 43.442L16.3246 43.4146C16.1948 43.3596 16.068 43.3017 15.9381 43.2437L15.8929 43.2254L15.8325 43.198C15.6996 43.137 15.5668 43.0729 15.4339 43.0088L15.3977 42.9905L15.3524 42.9692C15.2135 42.899 15.0716 42.8289 14.9357 42.7587L14.9115 42.7465L14.8844 42.7312C14.7364 42.655 14.5885 42.5757 14.4435 42.4933L14.3771 42.5879C14.3771 42.5879 14.3711 42.5848 14.365 42.5818L14.4194 42.4811C10.1952 40.1261 6.92823 36.3191 5.22226 31.7647C4.93542 30.9991 4.19868 30.4866 3.38948 30.4866C3.15396 30.4866 2.91845 30.5293 2.69501 30.6147C1.68653 31.0021 1.17625 32.146 1.5567 33.1649C2.31155 35.1813 3.33513 37.0939 4.5912 38.848L4.60026 38.8602C4.61234 38.8815 4.62442 38.8998 4.63951 38.9181C6.8467 41.9747 9.76647 44.5066 13.0908 46.2454L13.109 46.2546C13.2962 46.3522 13.4743 46.4437 13.6525 46.5291L13.6887 46.5474L13.7159 46.5596C13.8849 46.642 14.054 46.7243 14.2261 46.8006L14.2775 46.825L14.3137 46.8403C14.4768 46.9135 14.6428 46.9867 14.8089 47.0599L14.9146 47.1056C15.0776 47.1728 15.2407 47.2399 15.4037 47.307L15.4309 47.3192L15.4943 47.3436L15.5426 47.3619C15.6845 47.4168 15.8264 47.4717 15.9683 47.5236L16.0167 47.5419L16.0529 47.5541C16.2703 47.6334 16.4967 47.7096 16.7323 47.789L16.7836 47.8073C16.8832 47.8408 16.9859 47.8744 17.0885 47.9049L17.1942 47.9384L17.2607 47.9598C17.4086 48.0055 17.5566 48.0482 17.7045 48.0909L17.783 48.1123L17.8313 48.1245C18.0004 48.1703 18.1695 48.216 18.3386 48.2587L18.3899 48.2709L18.4141 48.277C20.1623 48.7163 21.9589 48.9542 23.7554 48.9908H23.7947C23.9336 48.9908 24.0724 48.9969 24.2113 48.9969H24.2264L24.2325 48.8231L24.2385 48.8505L24.2446 49C24.2446 49 24.2536 49 24.2596 49C24.2989 49 24.3291 49 24.3593 49H24.471C24.5495 49 24.628 49 24.7065 49C27.0677 48.9573 29.4047 48.5638 31.6481 47.8317C31.8052 47.8073 31.9531 47.7676 32.089 47.7096C32.1554 47.6822 32.2188 47.6517 32.2913 47.609C33.8795 47.0416 35.4134 46.3034 36.8566 45.4126L36.8747 45.4035V45.3821Z" fill="black"/>
<path d="M2.08509 28.8942C2.15454 28.8942 2.227 28.8912 2.29645 28.882C3.36834 28.7661 4.15037 27.79 4.03563 26.704C3.89976 25.4197 3.88466 24.108 3.99034 22.8055C4.43419 17.339 6.96144 12.3758 11.1011 8.82811C14.2956 6.09183 18.1574 4.44151 22.2819 4.048V6.72938C17.8132 7.22966 13.743 9.39856 10.8052 12.8517C8.04541 16.0944 6.52665 20.2339 6.52665 24.5137C6.52665 29.9009 8.89688 34.9525 13.0274 38.369C13.3777 38.6588 13.8155 38.8175 14.2654 38.8175C14.8542 38.8175 15.4098 38.5521 15.7811 38.0915C16.4635 37.2465 16.3428 35.9988 15.5064 35.3064C12.2877 32.6433 10.4428 28.7112 10.4428 24.5137C10.4428 21.1795 11.6264 17.9552 13.7732 15.4294C16.4001 12.3423 20.2136 10.573 24.2385 10.573C26.3823 10.573 28.5231 11.0824 30.4283 12.0433C30.4706 12.0708 30.5159 12.0982 30.5612 12.1226C34.6464 14.2549 37.4062 18.2785 37.9406 22.8848C38.1248 24.4619 38.0433 26.0359 37.7051 27.5703C37.5903 28.0858 37.6809 28.6166 37.9617 29.062C38.2425 29.5074 38.6773 29.8185 39.1876 29.9344C39.3295 29.968 39.4745 29.9833 39.6194 29.9833C40.5252 29.9833 41.3284 29.3335 41.5277 28.4367C41.9655 26.466 42.0681 24.4436 41.8326 22.4211C41.7541 21.7378 41.6303 21.0453 41.4703 20.362V20.3468C41.4643 20.3193 41.4582 20.2949 41.4522 20.2674C41.3737 19.9349 41.277 19.5902 41.1502 19.1845C39.0578 12.3728 33.2031 7.50115 26.1951 6.72633V4.0541C30.4555 4.46897 34.4018 6.18639 37.6175 9.0325C37.9738 9.34975 38.4328 9.52362 38.9068 9.52362C39.4714 9.52362 40.0089 9.27654 40.3803 8.84947C41.0929 8.02889 41.0083 6.77514 40.1961 6.05827C36.2739 2.58376 31.4428 0.518583 26.2313 0.0854137C25.558 0.0274544 24.8756 0 24.2023 0C18.4956 0 12.9429 2.06518 8.56475 5.81423C3.62801 10.0453 0.614639 15.9632 0.0832225 22.4821C-0.0435927 24.0287 -0.0254763 25.5936 0.137572 27.1249C0.243251 28.1316 1.07963 28.8912 2.08207 28.8912L2.08509 28.8942Z" fill="black"/>
</svg>
